<svg id="Layer" enable-background="new 0 0 64 64" height="512" viewBox="0 0 64 64" width="512" xmlns="http://www.w3.org/2000/svg">
    <path d="m13.5 56h37c3.033 0 5.5-2.468 5.5-5.5s-2.467-5.5-5.5-5.5h-1.046l-3.787-11.675c-.004-.015-.01-.03-.014-.045l-3.373-10.4v-.001l-3.48-10.729c-.805-2.483-3.098-4.15-5.708-4.15h-2.185c-2.609 0-4.903 1.667-5.707 4.149l-6.854 21.133c-.004.014-.01.028-.014.043l-3.786 11.675h-1.046c-3.033 0-5.5 2.468-5.5 5.5s2.467 5.5 5.5 5.5zm11.381-29.899c2.18.589 4.601.899 7.119.899s4.938-.31 7.119-.899l2.228 6.869c-2.318 1.266-5.742 2.03-9.347 2.03s-7.029-.764-9.347-2.03zm4.124-12.718c.268-.827 1.033-1.383 1.903-1.383h2.185c.87 0 1.634.556 1.902 1.383l2.888 8.905c-1.794.461-3.82.712-5.883.712s-4.089-.251-5.883-.712zm-7.602 23.439c2.865 1.383 6.627 2.178 10.597 2.178s7.732-.795 10.597-2.178l2.652 8.178h-26.498zm-7.903 12.178h34.493c.002 0 .004.001.006.001s.004-.001.006-.001h2.495c.827 0 1.5.673 1.5 1.5s-.673 1.5-1.5 1.5h-37c-.827 0-1.5-.673-1.5-1.5s.673-1.5 1.5-1.5z"/>
</svg>