<svg xmlns="http://www.w3.org/2000/svg"
	xml:space="preserve"
	version="1.1"
    id="snapchat"
    class="tag-icon"
    x="0px"
    y="0px"
    width="512pt" 
    height="512pt"
    viewBox="0 -4 512.00164 512">
    <path d="m496.914062 354.367188-74.179687-76.679688 28.875-11.960938c12.265625-5.082031 21.816406-14.636718 26.898437-26.902343 5.082032-12.265625 5.082032-25.777344 0-38.042969-7.722656-18.644531-25.753906-30.691406-45.933593-30.691406-6.535157 0-12.933594 1.277344-19.007813 3.792968l-1.941406.808594v-19.066406c0-85.8125-69.8125-155.625-155.625-155.625s-155.625 69.8125-155.625 155.625v19.0625l-1.9375-.800781c-6.078125-2.519531-12.476562-3.796875-19.011719-3.796875-20.183593 0-38.214843 12.050781-45.933593 30.691406-5.082032 12.265625-5.082032 25.777344-.003907 38.042969 5.082031 12.265625 14.636719 21.820312 26.898438 26.902343l28.875 11.960938-74.175781 76.679688c-17.851563 18.449218-16.070313 33.476562-13.421876 40.796874 3.960938 10.933594 14.417969 18.085938 28.691407 19.617188 5.746093.617188 10.898437 3.433594 14.515625 7.929688 3.492187 4.347656 5.089844 9.730468 4.488281 15.164062-1.546875 14.058594 3.277344 22.753906 7.597656 27.574219 5.667969 6.328125 13.957031 9.816406 23.339844 9.816406 7.957031 0 16.496094-2.398437 25.378906-7.121094l5.101563-2.714843c7.296875-3.878907 17.242187-6.015626 28-6.015626 12.453125 0 24.265625 2.863282 32.417968 7.855469l39.976563 24.496094c11.902344 7.292969 27.640625 11.625 44.3125 12.199219.171875.007812.34375.011718.515625.011718s.347656-.003906.519531-.011718c16.667969-.574219 32.402344-4.90625 44.308594-12.199219l39.972656-24.496094c8.152344-4.992187 19.96875-7.855469 32.417969-7.855469 10.765625 0 20.707031 2.136719 28 6.015626l5.105469 2.714843c8.882812 4.722657 17.421875 7.117188 25.375 7.121094h.003906c9.382813 0 17.671875-3.488281 23.34375-9.816406 4.316406-4.820313 9.140625-13.515625 7.59375-27.578125-.597656-5.429688.996094-10.8125 4.492187-15.160156 3.609376-4.496094 8.765626-7.3125 14.515626-7.929688 14.273437-1.53125 24.730468-8.683594 28.6875-19.617188 2.648437-7.320312 4.429687-22.347656-13.421876-40.796874zm0 0"/>
</svg>