<svg version="1.1" id="Capa_1" xmlns="http://www.w3.org/2000/svg" xmlns:xlink="http://www.w3.org/1999/xlink" x="0px" y="0px" viewBox="0 0 512 512" style="enable-background:new 0 0 512 512;" xml:space="preserve">
	<g>
		<g>
			<path d="M472.058,180.248c11.033-15.738,16.98-34.445,16.98-54.033c0-52.044-42.342-94.384-94.388-94.384
				c-17.093,0-33.831,4.671-48.376,13.348C318.972,16.305,281.398,0,241.172,0C161.272,0,96.27,65.002,96.27,144.903
				c0,13.074,1.742,25.955,5.19,38.455c-33.834,17.453-55.706,52.572-55.706,91.447c0,56.742,46.161,102.904,102.902,102.904
				c13.567,0,27.001-2.697,39.46-7.871c19.331,20.57,46.568,32.549,75.06,32.549c17.985,0,35.361-4.613,50.811-13.422
				c20.044,11.643,42.695,17.752,66.098,17.752c72.738,0,131.915-59.176,131.915-131.912C512,238.69,497.61,204.995,472.058,180.248z
				"/>
		</g>
	</g>
	<g>
		<g>
			<circle cx="15.001" cy="497" r="15"/>
		</g>
	</g>
	<g>
		<g>
			<circle cx="119.431" cy="456.83" r="15"/>
		</g>
	</g>
</svg>
