<svg height="511pt" viewBox="0 0 511 511.999" width="511pt" xmlns="http://www.w3.org/2000/svg"><path d="m114.449219 410.269531 34.621093 25.066407c10.59375 7.667968 25.96875 7.667968 36.5625 0l34.621094-25.066407c21.105469-15.28125 50.589844-15.28125 71.695313 0l34.625 25.066407c10.589843 7.667968 25.96875 7.667968 36.5625 0l34.621093-25.066407c21.109376-15.28125 50.589844-15.28125 71.699219 0l42.25 30.585938v-63.195313l-59.820312-43.304687c-10.589844-7.667969-25.964844-7.667969-36.558594 0l-34.625 25.0625c-21.105469 15.28125-50.589844 15.28125-71.695313 0l-34.625-25.0625c-10.589843-7.671875-25.96875-7.667969-36.558593 0l-34.625 25.0625c-21.105469 15.28125-50.589844 15.28125-71.695313 0l-34.625-25.0625c-10.589844-7.667969-25.96875-7.667969-36.558594 0l-59.820312 43.304687v63.195313l42.25-30.585938c21.109375-15.28125 50.589844-15.28125 71.699219 0zm0 0"/><path d="m114.449219 310.085938 34.621093 25.066406c10.59375 7.667968 25.96875 7.667968 36.5625 0l34.621094-25.066406c21.109375-15.277344 50.59375-15.277344 71.695313 0l34.625 25.066406c10.589843 7.667968 25.96875 7.667968 36.5625 0l34.621093-25.066406c21.109376-15.277344 50.589844-15.277344 71.699219 0l42.25 30.589843v-95.503906h-139.648437c-45.148438-1.863281-81.90625-40.078125-81.996094-85.320313-.042969-22.894531 8.835938-44.421874 25.003906-60.621093 15.921875-15.957031 37.027344-24.851563 59.523438-25.117188l8.640625 1.257813 11.585937-18.828125-8.949218-8.363281c-59.230469-55.355469-148.542969-63.949219-217.183594-20.902344-21.609375 13.554687-40.597656 32.585937-54.917969 55.054687l-113.265625 178.171875v80.171875l42.25-30.589843c21.109375-15.277344 50.589844-15.277344 71.699219 0zm0 0"/><path d="m415.324219 434.535156-34.621094 25.066406c-21.105469 15.277344-50.589844 15.277344-71.695313 0l-34.625-25.066406c-10.59375-7.667968-25.96875-7.667968-36.5625 0l-34.621093 25.066406c-21.105469 15.277344-50.589844 15.277344-71.695313 0l-34.625-25.066406c-10.589844-7.667968-25.96875-7.667968-36.558594 0l-59.820312 43.304688v34.160156h511.207031v-34.160156l-59.820312-43.304688c-10.589844-7.667968-25.964844-7.667968-36.5625 0zm0 0"/></svg>